<?xml version="1.0" encoding="UTF-8"?>
<svg xmlns="http://www.w3.org/2000/svg" xmlns:xlink="http://www.w3.org/1999/xlink" width="435.34" height="44.51" viewBox="32.09 307.76 435.34 44.51">
<defs>
<filter id="filter-remove-color" x="0%" y="0%" width="100%" height="100%">
<feColorMatrix color-interpolation-filters="sRGB" values="0 0 0 0 1 0 0 0 0 1 0 0 0 0 1 0 0 0 1 0" />
</filter>
<mask id="mask-0">
<g filter="url(#filter-remove-color)">
<rect x="-50" y="-50" width="600" height="600" fill="rgb(0%, 0%, 0%)" fill-opacity="0.970001"/>
</g>
</mask>
<clipPath id="clip-0">
<path clip-rule="nonzero" d="M 0 0.519531 L 58.058594 0.519531 L 58.058594 41.546875 L 0 41.546875 Z M 0 0.519531 "/>
</clipPath>
<clipPath id="clip-1">
<rect x="0" y="0" width="59" height="42"/>
</clipPath>
<g id="source-5" clip-path="url(#clip-1)">
<g clip-path="url(#clip-0)">
<path fill-rule="nonzero" fill="rgb(31.37207%, 17.254639%, 48.234558%)" fill-opacity="1" d="M 58.007812 25.386719 C 58.007812 29.996094 57.917969 34.605469 58.054688 39.203125 C 58.109375 41.121094 57.480469 41.515625 55.664062 41.527344 C 49.140625 41.558594 49.140625 41.625 49.140625 35.132812 C 49.140625 28.644531 49.171875 22.625 49.117188 16.378906 C 49.09375 13.832031 49.929688 10.519531 46.863281 9.449219 C 43.707031 8.34375 40.179688 8.296875 37.089844 10.40625 C 34.375 12.265625 33.585938 15.003906 33.574219 18.09375 C 33.5625 25.117188 33.507812 32.136719 33.609375 39.160156 C 33.628906 40.996094 33.144531 41.527344 31.273438 41.535156 C 24.601562 41.582031 24.601562 41.660156 24.601562 34.910156 C 24.601562 29.421875 24.570312 23.941406 24.601562 18.453125 C 24.679688 9.527344 18.582031 8.09375 12.058594 9.199219 C 9.554688 9.617188 9.136719 11.757812 9.148438 14.023438 C 9.195312 22.363281 9.09375 30.707031 9.21875 39.035156 C 9.25 41.121094 8.65625 41.546875 6.660156 41.535156 C 0.078125 41.503906 0.078125 41.59375 0.078125 35.148438 C 0.078125 28.699219 0.3125 22.847656 0.03125 16.71875 C -0.609375 3.058594 8.226562 -0.71875 19.699219 0.984375 C 22.765625 1.433594 25.628906 2.628906 27.835938 4.882812 C 28.917969 5.988281 29.484375 5.636719 30.453125 4.816406 C 36.085938 0.0390625 42.714844 -0.164062 49.421875 1.378906 C 54.390625 2.527344 57.839844 7.398438 57.964844 12.546875 C 58.066406 16.820312 57.988281 21.101562 57.988281 25.386719 Z M 58.007812 25.386719 "/>
</g>
</g>
<mask id="mask-1">
<g filter="url(#filter-remove-color)">
<rect x="-50" y="-50" width="600" height="600" fill="rgb(0%, 0%, 0%)" fill-opacity="0.970001"/>
</g>
</mask>
<clipPath id="clip-2">
<path clip-rule="nonzero" d="M 0 0.746094 L 58.058594 0.746094 L 58.058594 41.773438 L 0 41.773438 Z M 0 0.746094 "/>
</clipPath>
<clipPath id="clip-3">
<rect x="0" y="0" width="59" height="42"/>
</clipPath>
<g id="source-8" clip-path="url(#clip-3)">
<g clip-path="url(#clip-2)">
<path fill-rule="nonzero" fill="rgb(100%, 100%, 100%)" fill-opacity="1" d="M 58.007812 25.613281 C 58.007812 30.222656 57.917969 34.832031 58.054688 39.429688 C 58.109375 41.347656 57.480469 41.742188 55.664062 41.753906 C 49.140625 41.785156 49.140625 41.851562 49.140625 35.359375 C 49.140625 28.871094 49.171875 22.851562 49.117188 16.605469 C 49.09375 14.058594 49.929688 10.746094 46.863281 9.675781 C 43.707031 8.570312 40.179688 8.523438 37.089844 10.632812 C 34.375 12.492188 33.585938 15.230469 33.574219 18.320312 C 33.5625 25.339844 33.507812 32.363281 33.609375 39.386719 C 33.628906 41.222656 33.144531 41.753906 31.273438 41.761719 C 24.601562 41.808594 24.601562 41.886719 24.601562 35.136719 C 24.601562 29.648438 24.570312 24.167969 24.601562 18.679688 C 24.679688 9.753906 18.582031 8.324219 12.058594 9.425781 C 9.554688 9.84375 9.136719 11.984375 9.148438 14.25 C 9.195312 22.589844 9.09375 30.933594 9.21875 39.261719 C 9.25 41.347656 8.65625 41.773438 6.660156 41.761719 C 0.078125 41.730469 0.078125 41.820312 0.078125 35.375 C 0.078125 28.925781 0.3125 23.078125 0.03125 16.945312 C -0.609375 3.285156 8.226562 -0.492188 19.699219 1.210938 C 22.765625 1.660156 25.628906 2.855469 27.835938 5.109375 C 28.917969 6.214844 29.484375 5.867188 30.453125 5.042969 C 36.085938 0.265625 42.714844 0.0625 49.421875 1.605469 C 54.390625 2.753906 57.839844 7.625 57.964844 12.773438 C 58.066406 17.046875 57.988281 21.328125 57.988281 25.613281 Z M 58.007812 25.613281 "/>
</g>
</g>
<mask id="mask-2">
<g filter="url(#filter-remove-color)">
<rect x="-50" y="-50" width="600" height="600" fill="rgb(0%, 0%, 0%)" fill-opacity="0.970001"/>
</g>
</mask>
<clipPath id="clip-4">
<path clip-rule="nonzero" d="M 0 0.632812 L 58.058594 0.632812 L 58.058594 41.65625 L 0 41.65625 Z M 0 0.632812 "/>
</clipPath>
<clipPath id="clip-5">
<rect x="0" y="0" width="59" height="42"/>
</clipPath>
<g id="source-11" clip-path="url(#clip-5)">
<g clip-path="url(#clip-4)">
<path fill-rule="nonzero" fill="rgb(13.725281%, 12.156677%, 12.548828%)" fill-opacity="1" d="M 58.007812 25.5 C 58.007812 30.109375 57.917969 34.71875 58.054688 39.316406 C 58.109375 41.234375 57.480469 41.628906 55.664062 41.640625 C 49.140625 41.671875 49.140625 41.738281 49.140625 35.246094 C 49.140625 28.757812 49.171875 22.738281 49.117188 16.492188 C 49.09375 13.945312 49.929688 10.632812 46.863281 9.5625 C 43.707031 8.457031 40.179688 8.410156 37.089844 10.519531 C 34.375 12.378906 33.585938 15.117188 33.574219 18.207031 C 33.5625 25.226562 33.507812 32.25 33.609375 39.273438 C 33.628906 41.109375 33.144531 41.640625 31.273438 41.648438 C 24.601562 41.695312 24.601562 41.773438 24.601562 35.023438 C 24.601562 29.535156 24.570312 24.054688 24.601562 18.566406 C 24.679688 9.640625 18.582031 8.207031 12.058594 9.3125 C 9.554688 9.730469 9.136719 11.871094 9.148438 14.136719 C 9.195312 22.476562 9.09375 30.820312 9.21875 39.148438 C 9.25 41.234375 8.65625 41.660156 6.660156 41.648438 C 0.078125 41.617188 0.078125 41.707031 0.078125 35.261719 C 0.078125 28.8125 0.3125 22.964844 0.03125 16.832031 C -0.609375 3.171875 8.226562 -0.605469 19.699219 1.097656 C 22.765625 1.546875 25.628906 2.742188 27.835938 4.996094 C 28.917969 6.101562 29.484375 5.75 30.453125 4.929688 C 36.085938 0.152344 42.714844 -0.0507812 49.421875 1.492188 C 54.390625 2.640625 57.839844 7.511719 57.964844 12.660156 C 58.066406 16.933594 57.988281 21.214844 57.988281 25.5 Z M 58.007812 25.5 "/>
</g>
</g>
</defs>
<path fill-rule="nonzero" fill="rgb(10.980225%, 5.097961%, 25.489807%)" fill-opacity="1" d="M 231.808594 173.425781 C 235.4375 173.425781 239.054688 173.417969 242.683594 173.425781 C 243.855469 173.425781 244.824219 173.472656 244.78125 171.78125 C 244.691406 167.722656 244.722656 163.65625 244.769531 159.597656 C 244.78125 158.371094 244.339844 157.773438 243.054688 157.804688 C 238.996094 157.90625 234.90625 157.671875 230.882812 158.109375 C 223.410156 158.921875 219.691406 163.375 219.476562 170.867188 C 219.417969 172.761719 219.734375 173.621094 221.921875 173.484375 C 225.203125 173.269531 228.503906 173.425781 231.808594 173.425781 M 252.003906 171.714844 C 252.003906 177.089844 251.859375 182.480469 252.0625 187.84375 C 252.160156 190.617188 250.628906 190.648438 248.769531 190.414062 C 247.113281 190.199219 244.542969 191.609375 244.679688 187.988281 C 244.757812 185.632812 245.816406 182.398438 244.148438 181.125 C 242.605469 179.941406 239.527344 180.699219 237.136719 180.6875 C 231.976562 180.652344 226.8125 180.753906 221.652344 180.640625 C 219.894531 180.609375 219.320312 181.171875 219.488281 182.871094 C 219.613281 184.066406 219.363281 185.308594 219.542969 186.492188 C 220.019531 189.589844 218.96875 190.683594 215.691406 190.558594 C 213.03125 190.457031 212.058594 189.929688 212.195312 187.097656 C 212.433594 181.949219 212.207031 176.785156 212.273438 171.636719 C 212.433594 158.742188 219.621094 151.257812 232.515625 150.726562 C 237.453125 150.523438 242.402344 150.617188 247.339844 150.726562 C 250.910156 150.796875 251.957031 151.96875 251.980469 155.621094 C 252.027344 160.996094 251.980469 166.371094 251.980469 171.75 Z M 252.003906 171.714844 "/>
<path fill-rule="nonzero" fill="rgb(10.980225%, 5.097961%, 25.489807%)" fill-opacity="1" d="M 55.574219 190.492188 C 49.105469 190.492188 42.636719 190.414062 36.164062 190.546875 C 34.113281 190.59375 33.605469 190.007812 33.628906 187.988281 C 33.699219 182.398438 33.585938 182.386719 39.039062 182.386719 L 73.257812 182.386719 C 75.546875 182.386719 77.734375 182.117188 78.386719 179.378906 C 79.128906 176.234375 77.25 174.171875 73.515625 174.148438 C 64.308594 174.09375 55.089844 174.183594 45.882812 174.058594 C 40.269531 173.980469 35.367188 169.933594 34.214844 164.804688 C 32.726562 158.191406 36.492188 151.957031 43.121094 150.253906 C 44.6875 149.847656 46.367188 149.714844 48 149.703125 C 58.855469 149.65625 69.71875 149.746094 80.574219 149.625 C 82.929688 149.601562 83.785156 150.027344 83.683594 152.609375 C 83.46875 157.929688 83.640625 157.929688 78.25 157.929688 L 47.652344 157.929688 C 45.859375 157.929688 44.15625 158.085938 43.253906 160.058594 C 42.476562 161.75 42.769531 163.273438 43.839844 164.660156 C 44.980469 166.148438 46.679688 166.078125 48.339844 166.078125 C 57.445312 166.078125 66.542969 165.953125 75.648438 166.15625 C 84.855469 166.359375 90.546875 176.074219 86.097656 184.042969 C 83.773438 188.203125 79.929688 190.46875 74.996094 190.46875 L 55.585938 190.46875 Z M 55.574219 190.492188 "/>
<path fill-rule="nonzero" fill="rgb(10.980225%, 5.097961%, 25.489807%)" fill-opacity="1" d="M 143.195312 149.703125 C 148.242188 149.703125 153.28125 149.792969 158.332031 149.65625 C 160.394531 149.601562 161.171875 150.039062 161.136719 152.304688 C 161.046875 157.953125 161.171875 157.953125 155.695312 157.953125 C 147.027344 157.953125 138.371094 157.941406 129.703125 157.953125 C 123.3125 157.964844 120.472656 160.757812 120.40625 167.070312 C 120.382812 169.484375 120.335938 171.894531 120.425781 174.304688 C 120.609375 179.050781 123.460938 182.21875 128.171875 182.332031 C 136.058594 182.523438 143.960938 182.433594 151.863281 182.355469 C 154.410156 182.332031 156.054688 180.921875 156.054688 178.308594 C 156.054688 175.523438 154.320312 174.160156 151.613281 174.136719 C 144.492188 174.09375 137.355469 174.070312 130.234375 174.160156 C 128.375 174.183594 127.574219 173.957031 127.605469 171.75 C 127.695312 166.078125 127.5625 166.078125 133.207031 166.078125 C 139.464844 166.078125 145.707031 166.035156 151.964844 166.089844 C 159.480469 166.15625 165.070312 171.351562 165.160156 178.238281 C 165.261719 185.023438 159.515625 190.425781 152.03125 190.480469 C 144.242188 190.539062 136.453125 190.539062 128.667969 190.480469 C 118.195312 190.402344 111.332031 183.402344 111.296875 172.886719 L 111.296875 167.296875 C 111.332031 156.804688 118.152344 149.871094 128.699219 149.703125 C 133.523438 149.625 138.347656 149.691406 143.171875 149.691406 Z M 143.195312 149.703125 "/>
<path fill-rule="nonzero" fill="rgb(10.980225%, 5.097961%, 25.489807%)" fill-opacity="1" d="M 288.523438 190.527344 C 282.933594 190.527344 277.339844 190.582031 271.761719 190.515625 C 264.390625 190.425781 259.105469 185.398438 258.96875 178.058594 C 258.8125 169.402344 258.96875 160.746094 258.890625 152.089844 C 258.867188 150.300781 259.308594 149.679688 261.234375 149.65625 C 267.78125 149.601562 267.78125 149.511719 267.78125 156.027344 C 267.78125 162.921875 267.761719 169.832031 267.78125 176.730469 C 267.804688 181.070312 269.148438 182.410156 273.464844 182.410156 C 283.980469 182.421875 279.84375 182.535156 290.359375 182.367188 C 293.152344 182.320312 294.15625 182.863281 293.957031 185.871094 C 293.648438 190.515625 293.875 190.527344 289.3125 190.527344 C 284.160156 190.527344 293.671875 190.503906 288.523438 190.503906 Z M 288.523438 190.527344 "/>
<path fill-rule="nonzero" fill="rgb(10.980225%, 5.097961%, 25.489807%)" fill-opacity="1" d="M 104.015625 170.203125 C 104.015625 176.234375 103.949219 182.273438 104.0625 188.304688 C 104.097656 190.0625 103.542969 190.46875 101.84375 190.515625 C 94.875 190.683594 94.875 190.738281 94.875 183.910156 C 94.875 173.382812 94.933594 162.855469 94.832031 152.316406 C 94.808594 150.164062 95.394531 149.566406 97.546875 149.589844 C 104.015625 149.644531 104.015625 149.542969 104.015625 156.058594 C 104.015625 160.769531 104.015625 165.492188 104.015625 170.203125 "/>
<path fill-rule="nonzero" fill="rgb(10.980225%, 5.097961%, 25.489807%)" fill-opacity="1" d="M 176.90625 171.679688 L 176.90625 162.054688 C 178.449219 162.957031 179.046875 164.761719 179.578125 165.652344 C 183.273438 171.804688 186.363281 177.429688 190.453125 183.34375 C 193.191406 187.3125 196.203125 190.75 201.65625 190.535156 C 203.957031 190.445312 205.003906 189.648438 204.980469 187.191406 C 204.902344 177.226562 204.980469 162.933594 204.980469 152.25 C 204.980469 150.683594 203.742188 149.398438 202.175781 149.332031 L 198.882812 149.207031 C 197.226562 149.148438 195.851562 150.46875 195.863281 152.136719 C 195.875 153.804688 195.875 155.789062 195.886719 156.578125 C 195.910156 163.203125 195.886719 169.832031 195.886719 176.582031 C 194.839844 176.289062 194.703125 175.625 194.375 175.105469 C 190.023438 168.085938 186.304688 160.679688 181.527344 153.894531 C 178.878906 150.140625 174.539062 150.605469 170.265625 150.910156 C 167.933594 151.078125 168.125 153.929688 168.125 153.929688 L 168.125 187.921875 C 168.125 189.363281 169.296875 190.535156 170.742188 190.535156 L 174.234375 190.535156 C 175.675781 190.535156 176.851562 189.363281 176.851562 187.921875 L 176.882812 171.667969 Z M 176.90625 171.679688 "/>
<path fill-rule="nonzero" fill="rgb(90.588379%, 89.804077%, 95.294189%)" fill-opacity="1" d="M 376.839844 163.621094 L 376.785156 153.894531 C 376.785156 151.96875 377.597656 150.898438 378.925781 150.929688 L 385.960938 151.066406 L 376.832031 163.632812 Z M 376.839844 163.621094 "/>
<path fill-rule="nonzero" fill="rgb(10.980225%, 5.097961%, 25.489807%)" fill-opacity="1" d="M 169.636719 163.273438 L 169.582031 153.546875 C 169.582031 151.617188 170.390625 150.546875 171.722656 150.582031 L 176.804688 150.671875 Z M 169.636719 163.273438 "/>
<path fill-rule="nonzero" fill="rgb(31.37207%, 17.254639%, 48.234558%)" fill-opacity="1" d="M 361.863281 170.082031 C 361.863281 164.164062 361.90625 158.246094 361.828125 152.316406 C 361.804688 150.492188 362.085938 149.613281 364.296875 149.601562 C 370.84375 149.578125 370.84375 149.464844 370.84375 155.980469 C 370.84375 166.609375 370.777344 177.25 370.902344 187.878906 C 370.925781 190.085938 370.257812 190.558594 368.175781 190.535156 C 361.863281 190.46875 361.863281 190.558594 361.863281 184.214844 L 361.863281 170.070312 Z M 361.863281 170.082031 "/>
<path fill-rule="nonzero" fill="rgb(31.37207%, 17.254639%, 48.234558%)" fill-opacity="1" d="M 385.554688 171.679688 L 385.554688 162.054688 C 387.097656 162.957031 387.695312 164.761719 388.226562 165.652344 C 391.921875 171.804688 395.007812 177.429688 399.101562 183.34375 C 401.839844 187.3125 404.851562 190.75 410.304688 190.535156 C 412.605469 190.445312 413.652344 189.648438 413.628906 187.191406 C 413.550781 177.226562 413.628906 162.933594 413.628906 152.25 C 413.628906 150.683594 412.390625 149.398438 410.824219 149.332031 L 407.53125 149.207031 C 405.875 149.148438 404.5 150.46875 404.511719 152.136719 C 404.523438 153.804688 404.523438 155.789062 404.535156 156.578125 C 404.558594 163.203125 404.535156 169.832031 404.535156 176.582031 C 403.484375 176.289062 403.351562 175.625 403.023438 175.105469 C 398.671875 168.085938 394.953125 160.679688 390.175781 153.894531 C 387.527344 150.140625 383.1875 150.605469 378.914062 150.910156 C 376.582031 151.078125 376.773438 153.929688 376.773438 153.929688 L 376.773438 187.921875 C 376.773438 189.363281 377.945312 190.535156 379.390625 190.535156 L 382.882812 190.535156 C 384.324219 190.535156 385.496094 189.363281 385.496094 187.921875 L 385.53125 171.667969 Z M 385.554688 171.679688 "/>
<path fill-rule="nonzero" fill="rgb(31.37207%, 17.254639%, 48.234558%)" fill-opacity="1" d="M 460.765625 157.703125 C 466.34375 157.703125 466.207031 157.703125 466.367188 152.238281 C 466.433594 149.882812 465.734375 149.339844 463.457031 149.386719 C 456.121094 149.535156 448.773438 149.441406 441.433594 149.441406 L 422.039062 149.441406 C 416.265625 149.441406 416.402344 149.441406 416.3125 155.078125 C 416.265625 157.433594 417.191406 157.785156 419.175781 157.738281 L 432.769531 157.738281 C 434.886719 157.738281 436.601562 159.453125 436.609375 161.558594 L 436.746094 183.898438 C 436.589844 191.765625 436.746094 190.253906 443.238281 190.3125 C 445.390625 190.332031 445.976562 189.746094 445.945312 187.59375 L 445.761719 161.515625 C 445.75 159.40625 447.453125 157.695312 449.5625 157.695312 L 460.765625 157.695312 Z M 460.765625 157.703125 "/>
<g mask="url(#mask-0)">
<use xlink:href="#source-5" transform="matrix(1, 0, 0, 1, 297, 149)"/>
</g>
<path fill-rule="nonzero" fill="rgb(31.37207%, 17.254639%, 48.234558%)" fill-opacity="1" d="M 297.089844 162.707031 L 297.089844 153.027344 C 297.089844 151.019531 298.734375 149.398438 300.738281 149.433594 L 311.335938 149.613281 Z M 297.089844 162.707031 "/>
<path fill-rule="nonzero" fill="rgb(31.37207%, 17.254639%, 48.234558%)" fill-opacity="1" d="M 355.066406 162.707031 L 355.066406 153.027344 C 355.066406 151.019531 353.417969 149.398438 351.414062 149.433594 L 340.820312 149.613281 Z M 355.066406 162.707031 "/>
<path fill-rule="nonzero" fill="rgb(100%, 100%, 100%)" fill-opacity="1" d="M 231.808594 333.652344 C 235.4375 333.652344 239.054688 333.644531 242.683594 333.652344 C 243.855469 333.652344 244.824219 333.699219 244.78125 332.007812 C 244.691406 327.953125 244.722656 323.882812 244.769531 319.824219 C 244.78125 318.597656 244.339844 318 243.054688 318.03125 C 238.996094 318.132812 234.90625 317.898438 230.882812 318.335938 C 223.410156 319.148438 219.691406 323.601562 219.476562 331.09375 C 219.417969 332.988281 219.734375 333.847656 221.921875 333.710938 C 225.203125 333.496094 228.503906 333.652344 231.808594 333.652344 M 252.003906 331.941406 C 252.003906 337.316406 251.859375 342.707031 252.0625 348.070312 C 252.160156 350.84375 250.628906 350.875 248.769531 350.640625 C 247.113281 350.425781 244.542969 351.835938 244.679688 348.214844 C 244.757812 345.859375 245.816406 342.625 244.148438 341.351562 C 242.605469 340.167969 239.527344 340.925781 237.136719 340.914062 C 231.976562 340.878906 226.8125 340.980469 221.652344 340.867188 C 219.894531 340.835938 219.320312 341.398438 219.488281 343.097656 C 219.613281 344.292969 219.363281 345.535156 219.542969 346.71875 C 220.019531 349.816406 218.96875 350.910156 215.691406 350.785156 C 213.03125 350.683594 212.058594 350.15625 212.195312 347.328125 C 212.433594 342.175781 212.207031 337.011719 212.273438 331.863281 C 212.433594 318.96875 219.621094 311.484375 232.515625 310.953125 C 237.453125 310.75 242.402344 310.84375 247.339844 310.953125 C 250.910156 311.023438 251.957031 312.195312 251.980469 315.847656 C 252.027344 321.222656 251.980469 326.597656 251.980469 331.976562 Z M 252.003906 331.941406 "/>
<path fill-rule="nonzero" fill="rgb(100%, 100%, 100%)" fill-opacity="1" d="M 55.574219 350.71875 C 49.105469 350.71875 42.636719 350.640625 36.164062 350.773438 C 34.113281 350.820312 33.605469 350.234375 33.628906 348.214844 C 33.699219 342.625 33.585938 342.613281 39.039062 342.613281 L 73.257812 342.613281 C 75.546875 342.613281 77.734375 342.34375 78.386719 339.605469 C 79.128906 336.460938 77.25 334.398438 73.515625 334.375 C 64.308594 334.320312 55.089844 334.410156 45.882812 334.285156 C 40.269531 334.207031 35.367188 330.160156 34.214844 325.03125 C 32.726562 318.414062 36.492188 312.183594 43.121094 310.480469 C 44.6875 310.074219 46.367188 309.941406 48 309.929688 C 58.855469 309.882812 69.71875 309.972656 80.574219 309.851562 C 82.929688 309.828125 83.785156 310.253906 83.683594 312.835938 C 83.46875 318.15625 83.640625 318.15625 78.25 318.15625 L 47.652344 318.15625 C 45.859375 318.15625 44.15625 318.3125 43.253906 320.285156 C 42.476562 321.976562 42.769531 323.5 43.839844 324.886719 C 44.980469 326.375 46.679688 326.304688 48.339844 326.304688 C 57.445312 326.304688 66.542969 326.179688 75.648438 326.382812 C 84.855469 326.585938 90.546875 336.300781 86.097656 344.269531 C 83.773438 348.429688 79.929688 350.695312 74.996094 350.695312 L 55.585938 350.695312 Z M 55.574219 350.71875 "/>
<path fill-rule="nonzero" fill="rgb(100%, 100%, 100%)" fill-opacity="1" d="M 143.195312 309.929688 C 148.242188 309.929688 153.28125 310.019531 158.332031 309.882812 C 160.394531 309.828125 161.171875 310.265625 161.136719 312.53125 C 161.046875 318.179688 161.171875 318.179688 155.695312 318.179688 C 147.027344 318.179688 138.371094 318.167969 129.703125 318.179688 C 123.3125 318.191406 120.472656 320.984375 120.40625 327.296875 C 120.382812 329.710938 120.335938 332.121094 120.425781 334.53125 C 120.609375 339.277344 123.460938 342.445312 128.171875 342.558594 C 136.058594 342.75 143.960938 342.660156 151.863281 342.582031 C 154.410156 342.558594 156.054688 341.148438 156.054688 338.535156 C 156.054688 335.75 154.320312 334.386719 151.613281 334.363281 C 144.492188 334.320312 137.355469 334.296875 130.234375 334.386719 C 128.375 334.410156 127.574219 334.183594 127.605469 331.976562 C 127.695312 326.304688 127.5625 326.304688 133.207031 326.304688 C 139.464844 326.304688 145.707031 326.261719 151.964844 326.316406 C 159.480469 326.386719 165.070312 331.578125 165.160156 338.46875 C 165.261719 345.25 159.515625 350.652344 152.03125 350.707031 C 144.242188 350.765625 136.453125 350.765625 128.667969 350.707031 C 118.195312 350.628906 111.332031 343.628906 111.296875 333.113281 L 111.296875 327.523438 C 111.332031 317.03125 118.152344 310.097656 128.699219 309.929688 C 133.523438 309.851562 138.347656 309.917969 143.171875 309.917969 Z M 143.195312 309.929688 "/>
<path fill-rule="nonzero" fill="rgb(100%, 100%, 100%)" fill-opacity="1" d="M 288.523438 350.753906 C 282.933594 350.753906 277.339844 350.808594 271.761719 350.742188 C 264.390625 350.652344 259.105469 345.625 258.96875 338.285156 C 258.8125 329.628906 258.96875 320.972656 258.890625 312.316406 C 258.867188 310.527344 259.308594 309.90625 261.234375 309.882812 C 267.78125 309.828125 267.78125 309.738281 267.78125 316.253906 C 267.78125 323.148438 267.761719 330.058594 267.78125 336.957031 C 267.804688 341.296875 269.148438 342.636719 273.464844 342.636719 C 283.980469 342.648438 279.84375 342.761719 290.359375 342.59375 C 293.152344 342.546875 294.15625 343.089844 293.957031 346.097656 C 293.648438 350.742188 293.875 350.753906 289.3125 350.753906 C 284.160156 350.753906 293.671875 350.730469 288.523438 350.730469 Z M 288.523438 350.753906 "/>
<path fill-rule="nonzero" fill="rgb(100%, 100%, 100%)" fill-opacity="1" d="M 104.015625 330.429688 C 104.015625 336.460938 103.949219 342.5 104.0625 348.53125 C 104.097656 350.289062 103.542969 350.695312 101.84375 350.742188 C 94.875 350.910156 94.875 350.964844 94.875 344.136719 C 94.875 333.609375 94.933594 323.082031 94.832031 312.542969 C 94.808594 310.390625 95.394531 309.792969 97.546875 309.816406 C 104.015625 309.871094 104.015625 309.769531 104.015625 316.285156 C 104.015625 320.996094 104.015625 325.71875 104.015625 330.429688 "/>
<path fill-rule="nonzero" fill="rgb(100%, 100%, 100%)" fill-opacity="1" d="M 176.90625 331.90625 L 176.90625 322.28125 C 178.449219 323.183594 179.046875 324.988281 179.578125 325.878906 C 183.273438 332.03125 186.363281 337.65625 190.453125 343.570312 C 193.191406 347.539062 196.203125 350.976562 201.65625 350.761719 C 203.957031 350.671875 205.003906 349.875 204.980469 347.417969 C 204.902344 337.453125 204.980469 323.160156 204.980469 312.476562 C 204.980469 310.910156 203.742188 309.625 202.175781 309.558594 L 198.882812 309.433594 C 197.226562 309.375 195.851562 310.695312 195.863281 312.363281 C 195.875 314.03125 195.875 316.015625 195.886719 316.804688 C 195.910156 323.429688 195.886719 330.058594 195.886719 336.808594 C 194.839844 336.515625 194.703125 335.851562 194.375 335.332031 C 190.023438 328.3125 186.304688 320.90625 181.527344 314.121094 C 178.878906 310.367188 174.539062 310.832031 170.265625 311.136719 C 167.933594 311.304688 168.125 314.15625 168.125 314.15625 L 168.125 348.148438 C 168.125 349.589844 169.296875 350.761719 170.742188 350.761719 L 174.234375 350.761719 C 175.675781 350.761719 176.851562 349.589844 176.851562 348.148438 L 176.882812 331.894531 Z M 176.90625 331.90625 "/>
<path fill-rule="nonzero" fill="rgb(100%, 100%, 100%)" fill-opacity="1" d="M 376.839844 323.847656 L 376.785156 314.121094 C 376.785156 312.195312 377.597656 311.125 378.925781 311.15625 L 385.960938 311.292969 L 376.832031 323.859375 Z M 376.839844 323.847656 "/>
<path fill-rule="nonzero" fill="rgb(100%, 100%, 100%)" fill-opacity="1" d="M 169.636719 323.5 L 169.582031 313.773438 C 169.582031 311.84375 170.390625 310.773438 171.722656 310.808594 L 176.804688 310.898438 Z M 169.636719 323.5 "/>
<path fill-rule="nonzero" fill="rgb(100%, 100%, 100%)" fill-opacity="1" d="M 361.863281 330.308594 C 361.863281 324.390625 361.90625 318.472656 361.828125 312.542969 C 361.804688 310.71875 362.085938 309.839844 364.296875 309.828125 C 370.84375 309.804688 370.84375 309.691406 370.84375 316.207031 C 370.84375 326.835938 370.777344 337.476562 370.902344 348.105469 C 370.925781 350.3125 370.257812 350.785156 368.175781 350.765625 C 361.863281 350.695312 361.863281 350.785156 361.863281 344.441406 L 361.863281 330.296875 Z M 361.863281 330.308594 "/>
<path fill-rule="nonzero" fill="rgb(100%, 100%, 100%)" fill-opacity="1" d="M 385.554688 331.90625 L 385.554688 322.28125 C 387.097656 323.183594 387.695312 324.988281 388.226562 325.878906 C 391.921875 332.03125 395.007812 337.65625 399.101562 343.570312 C 401.839844 347.539062 404.851562 350.976562 410.304688 350.761719 C 412.605469 350.671875 413.652344 349.875 413.628906 347.417969 C 413.550781 337.453125 413.628906 323.160156 413.628906 312.476562 C 413.628906 310.910156 412.390625 309.625 410.824219 309.558594 L 407.53125 309.433594 C 405.875 309.375 404.5 310.695312 404.511719 312.363281 C 404.523438 314.03125 404.523438 316.015625 404.535156 316.804688 C 404.558594 323.429688 404.535156 330.058594 404.535156 336.808594 C 403.484375 336.515625 403.351562 335.851562 403.023438 335.332031 C 398.671875 328.3125 394.953125 320.90625 390.175781 314.121094 C 387.527344 310.367188 383.1875 310.832031 378.914062 311.136719 C 376.582031 311.304688 376.773438 314.15625 376.773438 314.15625 L 376.773438 348.148438 C 376.773438 349.589844 377.945312 350.761719 379.390625 350.761719 L 382.882812 350.761719 C 384.324219 350.761719 385.496094 349.589844 385.496094 348.148438 L 385.53125 331.894531 Z M 385.554688 331.90625 "/>
<path fill-rule="nonzero" fill="rgb(100%, 100%, 100%)" fill-opacity="1" d="M 460.765625 317.929688 C 466.34375 317.929688 466.207031 317.929688 466.367188 312.464844 C 466.433594 310.109375 465.734375 309.566406 463.457031 309.613281 C 456.121094 309.761719 448.773438 309.667969 441.433594 309.667969 L 422.039062 309.667969 C 416.265625 309.667969 416.402344 309.667969 416.3125 315.304688 C 416.265625 317.660156 417.191406 318.011719 419.175781 317.964844 L 432.769531 317.964844 C 434.886719 317.964844 436.601562 319.679688 436.609375 321.785156 L 436.746094 344.125 C 436.589844 351.992188 436.746094 350.480469 443.238281 350.539062 C 445.390625 350.558594 445.976562 349.972656 445.945312 347.824219 L 445.761719 321.742188 C 445.75 319.632812 447.453125 317.921875 449.5625 317.921875 L 460.765625 317.921875 Z M 460.765625 317.929688 "/>
<g mask="url(#mask-1)">
<use xlink:href="#source-8" transform="matrix(1, 0, 0, 1, 297, 309)"/>
</g>
<path fill-rule="nonzero" fill="rgb(100%, 100%, 100%)" fill-opacity="1" d="M 297.089844 322.9375 L 297.089844 313.253906 C 297.089844 311.246094 298.734375 309.625 300.738281 309.660156 L 311.335938 309.839844 Z M 297.089844 322.9375 "/>
<path fill-rule="nonzero" fill="rgb(100%, 100%, 100%)" fill-opacity="1" d="M 355.066406 322.9375 L 355.066406 313.253906 C 355.066406 311.246094 353.417969 309.625 351.414062 309.660156 L 340.820312 309.839844 Z M 355.066406 322.9375 "/>
<path fill-rule="nonzero" fill="rgb(13.725281%, 12.156677%, 12.548828%)" fill-opacity="1" d="M 231.808594 253.539062 C 235.4375 253.539062 239.054688 253.53125 242.683594 253.539062 C 243.855469 253.539062 244.824219 253.585938 244.78125 251.894531 C 244.691406 247.839844 244.722656 243.769531 244.769531 239.710938 C 244.78125 238.484375 244.339844 237.886719 243.054688 237.917969 C 238.996094 238.019531 234.90625 237.785156 230.882812 238.222656 C 223.410156 239.035156 219.691406 243.488281 219.476562 250.980469 C 219.417969 252.875 219.734375 253.734375 221.921875 253.597656 C 225.203125 253.382812 228.503906 253.539062 231.808594 253.539062 M 252.003906 251.828125 C 252.003906 257.203125 251.859375 262.59375 252.0625 267.957031 C 252.160156 270.730469 250.628906 270.761719 248.769531 270.527344 C 247.113281 270.3125 244.542969 271.722656 244.679688 268.101562 C 244.757812 265.746094 245.816406 262.511719 244.148438 261.238281 C 242.605469 260.054688 239.527344 260.8125 237.136719 260.800781 C 231.976562 260.765625 226.8125 260.867188 221.652344 260.753906 C 219.894531 260.722656 219.320312 261.285156 219.488281 262.984375 C 219.613281 264.179688 219.363281 265.421875 219.542969 266.605469 C 220.019531 269.703125 218.96875 270.796875 215.691406 270.671875 C 213.03125 270.570312 212.058594 270.042969 212.195312 267.214844 C 212.433594 262.0625 212.207031 256.898438 212.273438 251.75 C 212.433594 238.855469 219.621094 231.371094 232.515625 230.839844 C 237.453125 230.636719 242.402344 230.730469 247.339844 230.839844 C 250.910156 230.910156 251.957031 232.082031 251.980469 235.734375 C 252.027344 241.109375 251.980469 246.484375 251.980469 251.863281 Z M 252.003906 251.828125 "/>
<path fill-rule="nonzero" fill="rgb(13.725281%, 12.156677%, 12.548828%)" fill-opacity="1" d="M 55.574219 270.605469 C 49.105469 270.605469 42.636719 270.527344 36.164062 270.660156 C 34.113281 270.707031 33.605469 270.121094 33.628906 268.101562 C 33.699219 262.511719 33.585938 262.5 39.039062 262.5 L 73.257812 262.5 C 75.546875 262.5 77.734375 262.230469 78.386719 259.492188 C 79.128906 256.347656 77.25 254.285156 73.515625 254.261719 C 64.308594 254.207031 55.089844 254.296875 45.882812 254.171875 C 40.269531 254.09375 35.367188 250.046875 34.214844 244.917969 C 32.726562 238.300781 36.492188 232.070312 43.121094 230.367188 C 44.6875 229.960938 46.367188 229.828125 48 229.816406 C 58.855469 229.769531 69.71875 229.859375 80.574219 229.738281 C 82.929688 229.714844 83.785156 230.140625 83.683594 232.722656 C 83.46875 238.042969 83.640625 238.042969 78.25 238.042969 L 47.652344 238.042969 C 45.859375 238.042969 44.15625 238.199219 43.253906 240.171875 C 42.476562 241.863281 42.769531 243.386719 43.839844 244.773438 C 44.980469 246.261719 46.679688 246.191406 48.339844 246.191406 C 57.445312 246.191406 66.542969 246.066406 75.648438 246.269531 C 84.855469 246.472656 90.546875 256.1875 86.097656 264.15625 C 83.773438 268.316406 79.929688 270.582031 74.996094 270.582031 L 55.585938 270.582031 Z M 55.574219 270.605469 "/>
<path fill-rule="nonzero" fill="rgb(13.725281%, 12.156677%, 12.548828%)" fill-opacity="1" d="M 143.195312 229.816406 C 148.242188 229.816406 153.28125 229.90625 158.332031 229.769531 C 160.394531 229.714844 161.171875 230.152344 161.136719 232.417969 C 161.046875 238.066406 161.171875 238.066406 155.695312 238.066406 C 147.027344 238.066406 138.371094 238.054688 129.703125 238.066406 C 123.3125 238.078125 120.472656 240.871094 120.40625 247.183594 C 120.382812 249.59375 120.335938 252.007812 120.425781 254.417969 C 120.609375 259.164062 123.460938 262.332031 128.171875 262.445312 C 136.058594 262.636719 143.960938 262.546875 151.863281 262.46875 C 154.410156 262.445312 156.054688 261.035156 156.054688 258.421875 C 156.054688 255.636719 154.320312 254.273438 151.613281 254.25 C 144.492188 254.207031 137.355469 254.183594 130.234375 254.273438 C 128.375 254.296875 127.574219 254.070312 127.605469 251.863281 C 127.695312 246.191406 127.5625 246.191406 133.207031 246.191406 C 139.464844 246.191406 145.707031 246.148438 151.964844 246.203125 C 159.480469 246.273438 165.070312 251.464844 165.160156 258.355469 C 165.261719 265.136719 159.515625 270.539062 152.03125 270.59375 C 144.242188 270.652344 136.453125 270.652344 128.667969 270.59375 C 118.195312 270.515625 111.332031 263.515625 111.296875 253 L 111.296875 247.410156 C 111.332031 236.917969 118.152344 229.984375 128.699219 229.816406 C 133.523438 229.738281 138.347656 229.804688 143.171875 229.804688 Z M 143.195312 229.816406 "/>
<path fill-rule="nonzero" fill="rgb(13.725281%, 12.156677%, 12.548828%)" fill-opacity="1" d="M 288.523438 270.640625 C 282.933594 270.640625 277.339844 270.695312 271.761719 270.628906 C 264.390625 270.539062 259.105469 265.511719 258.96875 258.171875 C 258.8125 249.515625 258.96875 240.859375 258.890625 232.203125 C 258.867188 230.414062 259.308594 229.792969 261.234375 229.769531 C 267.78125 229.714844 267.78125 229.625 267.78125 236.140625 C 267.78125 243.035156 267.761719 249.945312 267.78125 256.84375 C 267.804688 261.183594 269.148438 262.523438 273.464844 262.523438 C 283.980469 262.535156 279.84375 262.648438 290.359375 262.480469 C 293.152344 262.433594 294.15625 262.976562 293.957031 265.984375 C 293.648438 270.628906 293.875 270.640625 289.3125 270.640625 C 284.160156 270.640625 293.671875 270.617188 288.523438 270.617188 Z M 288.523438 270.640625 "/>
<path fill-rule="nonzero" fill="rgb(13.725281%, 12.156677%, 12.548828%)" fill-opacity="1" d="M 104.015625 250.316406 C 104.015625 256.347656 103.949219 262.386719 104.0625 268.417969 C 104.097656 270.175781 103.542969 270.582031 101.84375 270.628906 C 94.875 270.796875 94.875 270.851562 94.875 264.023438 C 94.875 253.496094 94.933594 242.96875 94.832031 232.429688 C 94.808594 230.277344 95.394531 229.679688 97.546875 229.703125 C 104.015625 229.757812 104.015625 229.65625 104.015625 236.171875 C 104.015625 240.882812 104.015625 245.605469 104.015625 250.316406 "/>
<path fill-rule="nonzero" fill="rgb(13.725281%, 12.156677%, 12.548828%)" fill-opacity="1" d="M 176.90625 251.792969 L 176.90625 242.167969 C 178.449219 243.070312 179.046875 244.875 179.578125 245.765625 C 183.273438 251.917969 186.363281 257.542969 190.453125 263.457031 C 193.191406 267.425781 196.203125 270.863281 201.65625 270.648438 C 203.957031 270.558594 205.003906 269.761719 204.980469 267.304688 C 204.902344 257.339844 204.980469 243.046875 204.980469 232.363281 C 204.980469 230.796875 203.742188 229.511719 202.175781 229.445312 L 198.882812 229.320312 C 197.226562 229.261719 195.851562 230.582031 195.863281 232.25 C 195.875 233.917969 195.875 235.902344 195.886719 236.691406 C 195.910156 243.316406 195.886719 249.945312 195.886719 256.695312 C 194.839844 256.402344 194.703125 255.738281 194.375 255.21875 C 190.023438 248.199219 186.304688 240.792969 181.527344 234.007812 C 178.878906 230.253906 174.539062 230.71875 170.265625 231.023438 C 167.933594 231.191406 168.125 234.042969 168.125 234.042969 L 168.125 268.035156 C 168.125 269.476562 169.296875 270.648438 170.742188 270.648438 L 174.234375 270.648438 C 175.675781 270.648438 176.851562 269.476562 176.851562 268.035156 L 176.882812 251.78125 Z M 176.90625 251.792969 "/>
<path fill-rule="nonzero" fill="rgb(13.725281%, 12.156677%, 12.548828%)" fill-opacity="1" d="M 376.839844 243.734375 L 376.785156 234.007812 C 376.785156 232.082031 377.597656 231.011719 378.925781 231.042969 L 385.960938 231.179688 L 376.832031 243.746094 Z M 376.839844 243.734375 "/>
<path fill-rule="nonzero" fill="rgb(13.725281%, 12.156677%, 12.548828%)" fill-opacity="1" d="M 169.636719 243.386719 L 169.582031 233.660156 C 169.582031 231.730469 170.390625 230.660156 171.722656 230.695312 L 176.804688 230.785156 Z M 169.636719 243.386719 "/>
<path fill-rule="nonzero" fill="rgb(13.725281%, 12.156677%, 12.548828%)" fill-opacity="1" d="M 361.863281 250.195312 C 361.863281 244.277344 361.90625 238.359375 361.828125 232.429688 C 361.804688 230.605469 362.085938 229.726562 364.296875 229.714844 C 370.84375 229.691406 370.84375 229.578125 370.84375 236.09375 C 370.84375 246.722656 370.777344 257.363281 370.902344 267.992188 C 370.925781 270.199219 370.257812 270.671875 368.175781 270.652344 C 361.863281 270.582031 361.863281 270.671875 361.863281 264.328125 L 361.863281 250.183594 Z M 361.863281 250.195312 "/>
<path fill-rule="nonzero" fill="rgb(13.725281%, 12.156677%, 12.548828%)" fill-opacity="1" d="M 385.554688 251.792969 L 385.554688 242.167969 C 387.097656 243.070312 387.695312 244.875 388.226562 245.765625 C 391.921875 251.917969 395.007812 257.542969 399.101562 263.457031 C 401.839844 267.425781 404.851562 270.863281 410.304688 270.648438 C 412.605469 270.558594 413.652344 269.761719 413.628906 267.304688 C 413.550781 257.339844 413.628906 243.046875 413.628906 232.363281 C 413.628906 230.796875 412.390625 229.511719 410.824219 229.445312 L 407.53125 229.320312 C 405.875 229.261719 404.5 230.582031 404.511719 232.25 C 404.523438 233.917969 404.523438 235.902344 404.535156 236.691406 C 404.558594 243.316406 404.535156 249.945312 404.535156 256.695312 C 403.484375 256.402344 403.351562 255.738281 403.023438 255.21875 C 398.671875 248.199219 394.953125 240.792969 390.175781 234.007812 C 387.527344 230.253906 383.1875 230.71875 378.914062 231.023438 C 376.582031 231.191406 376.773438 234.042969 376.773438 234.042969 L 376.773438 268.035156 C 376.773438 269.476562 377.945312 270.648438 379.390625 270.648438 L 382.882812 270.648438 C 384.324219 270.648438 385.496094 269.476562 385.496094 268.035156 L 385.53125 251.78125 Z M 385.554688 251.792969 "/>
<path fill-rule="nonzero" fill="rgb(13.725281%, 12.156677%, 12.548828%)" fill-opacity="1" d="M 460.765625 237.816406 C 466.34375 237.816406 466.207031 237.816406 466.367188 232.351562 C 466.433594 229.996094 465.734375 229.453125 463.457031 229.5 C 456.121094 229.648438 448.773438 229.554688 441.433594 229.554688 L 422.039062 229.554688 C 416.265625 229.554688 416.402344 229.554688 416.3125 235.191406 C 416.265625 237.546875 417.191406 237.898438 419.175781 237.851562 L 432.769531 237.851562 C 434.886719 237.851562 436.601562 239.566406 436.609375 241.671875 L 436.746094 264.011719 C 436.589844 271.878906 436.746094 270.367188 443.238281 270.425781 C 445.390625 270.445312 445.976562 269.859375 445.945312 267.707031 L 445.761719 241.628906 C 445.75 239.519531 447.453125 237.808594 449.5625 237.808594 L 460.765625 237.808594 Z M 460.765625 237.816406 "/>
<g mask="url(#mask-2)">
<use xlink:href="#source-11" transform="matrix(1, 0, 0, 1, 297, 229)"/>
</g>
<path fill-rule="nonzero" fill="rgb(13.725281%, 12.156677%, 12.548828%)" fill-opacity="1" d="M 297.089844 242.820312 L 297.089844 233.140625 C 297.089844 231.132812 298.734375 229.511719 300.738281 229.546875 L 311.335938 229.726562 Z M 297.089844 242.820312 "/>
<path fill-rule="nonzero" fill="rgb(13.725281%, 12.156677%, 12.548828%)" fill-opacity="1" d="M 355.066406 242.820312 L 355.066406 233.140625 C 355.066406 231.132812 353.417969 229.511719 351.414062 229.546875 L 340.820312 229.726562 Z M 355.066406 242.820312 "/>
</svg>
